<svg width="17" height="16" viewBox="0 0 17 16" fill="none" xmlns="http://www.w3.org/2000/svg">
<path id="Vector" d="M3.09093 1L3.57921 0.892362C3.52869 0.663198 3.3256 0.5 3.09093 0.5V1ZM5.05876 9.92667L5.54721 9.81981L5.54704 9.81903L5.05876 9.92667ZM6.5273 11V10.4999L6.5186 10.5001L6.5273 11ZM13.6644 11L13.6731 10.5H13.6644V11ZM15.1329 9.92667L15.6214 10.0335L15.6222 10.0294L15.1329 9.92667ZM16.3077 4.33333L16.797 4.43611C16.828 4.28869 16.7909 4.13516 16.6959 4.01821C16.601 3.90125 16.4584 3.83333 16.3077 3.83333V4.33333ZM3.8252 3.83333C3.54906 3.83333 3.3252 4.05719 3.3252 4.33333C3.3252 4.60948 3.54906 4.83333 3.8252 4.83333V3.83333ZM6.26226 14.3333C6.26226 14.3628 6.25016 14.3991 6.2111 14.4346C6.17125 14.4707 6.10787 14.5 6.028 14.5V15.5C6.66313 15.5 7.26226 15.022 7.26226 14.3333H6.26226ZM6.028 14.5C5.94812 14.5 5.88474 14.4707 5.84489 14.4346C5.80584 14.3991 5.79373 14.3628 5.79373 14.3333H4.79373C4.79373 15.022 5.39287 15.5 6.028 15.5V14.5ZM5.79373 14.3333C5.79373 14.3039 5.80584 14.2676 5.84489 14.2321C5.88474 14.1959 5.94812 14.1667 6.028 14.1667V13.1667C5.39287 13.1667 4.79373 13.6447 4.79373 14.3333H5.79373ZM6.028 14.1667C6.10787 14.1667 6.17125 14.1959 6.2111 14.2321C6.25016 14.2676 6.26226 14.3039 6.26226 14.3333H7.26226C7.26226 13.6447 6.66313 13.1667 6.028 13.1667V14.1667ZM14.3392 14.3333C14.3392 14.3628 14.3271 14.3991 14.288 14.4346C14.2482 14.4707 14.1848 14.5 14.1049 14.5V15.5C14.74 15.5 15.3392 15.022 15.3392 14.3333H14.3392ZM14.1049 14.5C14.025 14.5 13.9617 14.4707 13.9218 14.4346C13.8828 14.3991 13.8707 14.3628 13.8707 14.3333H12.8707C12.8707 15.022 13.4698 15.5 14.1049 15.5V14.5ZM13.8707 14.3333C13.8707 14.3039 13.8828 14.2676 13.9218 14.2321C13.9617 14.1959 14.025 14.1667 14.1049 14.1667V13.1667C13.4698 13.1667 12.8707 13.6447 12.8707 14.3333H13.8707ZM14.1049 14.1667C14.1848 14.1667 14.2482 14.1959 14.288 14.2321C14.3271 14.2676 14.3392 14.3039 14.3392 14.3333H15.3392C15.3392 13.6447 14.74 13.1667 14.1049 13.1667V14.1667ZM0.15387 1.5H3.09093V0.5H0.15387V1.5ZM2.60266 1.10764L4.57049 10.0343L5.54704 9.81903L3.57921 0.892362L2.60266 1.10764ZM4.57032 10.0335C4.66516 10.4671 4.92252 10.8455 5.28325 11.1092L5.87333 10.3019C5.69712 10.1731 5.58666 10.0001 5.54721 9.81981L4.57032 10.0335ZM5.28325 11.1092C5.64315 11.3722 6.08663 11.5077 6.536 11.4999L6.5186 10.5001C6.27878 10.5042 6.05038 10.4313 5.87333 10.3019L5.28325 11.1092ZM6.5273 11.5H13.6644V10.5H6.5273V11.5ZM13.6557 11.4999C14.105 11.5077 14.5485 11.3722 14.9084 11.1092L14.3183 10.3019C14.1413 10.4313 13.9129 10.5042 13.6731 10.5001L13.6557 11.4999ZM14.9084 11.1092C15.2691 10.8455 15.5265 10.4671 15.6213 10.0335L14.6444 9.81981C14.605 10.0001 14.4945 10.1731 14.3183 10.3019L14.9084 11.1092ZM15.6222 10.0294L16.797 4.43611L15.8184 4.23056L14.6436 9.82389L15.6222 10.0294ZM16.3077 3.83333H3.8252V4.83333H16.3077V3.83333Z" fill="black"/>
</svg>
