<svg width="17" height="16" fill="none" xmlns="http://www.w3.org/2000/svg"><path id="Vector" d="m3.09 1 .49-.108A.5.5 0 0 0 3.09.5V1ZM5.06 9.927l.488-.107v-.001l-.488.108ZM6.527 11v-.5H6.52l.008.5Zm7.137 0 .01-.5h-.01v.5Zm1.469-1.073.488.107.001-.005-.49-.102Zm1.175-5.594.489.103a.5.5 0 0 0-.49-.603v.5Zm-12.483-.5a.5.5 0 0 0 0 1v-1Zm2.437 10.5c0 .03-.012.066-.05.102a.272.272 0 0 1-.184.065v1c.635 0 1.234-.478 1.234-1.167h-1Zm-.234.167a.272.272 0 0 1-.183-.065c-.04-.036-.051-.072-.051-.102h-1c0 .689.599 1.167 1.234 1.167v-1Zm-.234-.167c0-.03.012-.065.05-.1a.272.272 0 0 1 .184-.066v-1c-.635 0-1.234.478-1.234 1.166h1Zm.234-.166c.08 0 .143.029.183.065.04.036.051.072.051.101h1c0-.688-.599-1.166-1.234-1.166v1Zm8.311.166c0 .03-.012.066-.051.102a.272.272 0 0 1-.183.065v1c.635 0 1.234-.478 1.234-1.167h-1Zm-.234.167a.272.272 0 0 1-.183-.065c-.04-.036-.051-.072-.051-.102h-1c0 .689.599 1.167 1.234 1.167v-1Zm-.234-.167c0-.03.012-.065.05-.1a.272.272 0 0 1 .184-.066v-1c-.635 0-1.234.478-1.234 1.166h1Zm.234-.166c.08 0 .143.029.183.065.04.036.051.072.051.101h1c0-.688-.599-1.166-1.234-1.166v1ZM.154 1.5H3.09v-1H.154v1Zm2.449-.392 1.967 8.926.977-.215L3.579.892l-.976.216Zm1.967 8.925c.095.434.353.813.713 1.076l.59-.807a.82.82 0 0 1-.326-.482l-.977.213Zm.713 1.076c.36.263.804.399 1.253.39l-.017-.999a1.067 1.067 0 0 1-.646-.198l-.59.807Zm1.244.391h7.137v-1H6.527v1Zm7.129 0c.449.008.893-.128 1.252-.39l-.59-.808c-.177.13-.405.202-.645.198l-.017 1Zm1.252-.39c.361-.264.619-.643.713-1.076l-.977-.214a.82.82 0 0 1-.326.482l.59.807Zm.714-1.08 1.175-5.594-.979-.205-1.174 5.593.978.205Zm.686-6.197H3.825v1h12.483v-1Z" fill="#000"/></svg>