<svg width="119" height="119" viewBox="0 0 119 119" fill="none" xmlns="http://www.w3.org/2000/svg">
<path id="Vector" d="M16.3333 115H102.667C109.478 115 115 109.478 115 102.667V16.3333C115 9.52182 109.478 4 102.667 4H16.3333C9.52182 4 4 9.52182 4 16.3333V102.667C4 109.478 9.52182 115 16.3333 115ZM16.3333 115L84.1667 47.1667L115 78M47.1667 37.9167C47.1667 43.0253 43.0253 47.1667 37.9167 47.1667C32.808 47.1667 28.6667 43.0253 28.6667 37.9167C28.6667 32.808 32.808 28.6667 37.9167 28.6667C43.0253 28.6667 47.1667 32.808 47.1667 37.9167Z" stroke="black" stroke-width="8" stroke-linecap="round" stroke-linejoin="round"></path>
</svg>
