<svg width="13" height="13" fill="none" xmlns="http://www.w3.org/2000/svg"><path id="Vector" d="M12 9.657v1.656a1.103 1.103 0 0 1-1.206 1.104 10.96 10.96 0 0 1-4.773-1.695A10.774 10.774 0 0 1 2.702 7.41a10.91 10.91 0 0 1-1.698-4.786 1.102 1.102 0 0 1 1.101-1.203h1.66a1.107 1.107 0 0 1 1.105.95c.07.53.2 1.05.388 1.55a1.102 1.102 0 0 1-.25 1.165l-.702.701A8.84 8.84 0 0 0 7.625 9.1l.702-.7a1.107 1.107 0 0 1 1.167-.25 7.113 7.113 0 0 0 1.554.387A1.107 1.107 0 0 1 12 9.656Z" stroke="#000" stroke-linecap="round" stroke-linejoin="round"/></svg>