<svg width="13" height="13" viewBox="0 0 13 13" fill="none" xmlns="http://www.w3.org/2000/svg">
<path id="Vector" d="M11.9997 9.65669V11.3126C12.0003 11.4664 11.9687 11.6185 11.907 11.7594C11.8453 11.9002 11.7548 12.0267 11.6413 12.1306C11.5278 12.2345 11.3938 12.3136 11.2479 12.3629C11.102 12.4121 10.9474 12.4304 10.794 12.4166C9.09204 12.232 7.45724 11.6516 6.0209 10.722C4.68457 9.87454 3.55159 8.74381 2.70244 7.41013C1.76772 5.97013 1.18603 4.33062 1.00449 2.62445C0.990668 2.47181 1.00884 2.31797 1.05786 2.17273C1.10688 2.02748 1.18566 1.89401 1.28919 1.78082C1.39273 1.66762 1.51874 1.57719 1.65922 1.51526C1.79969 1.45333 1.95155 1.42128 2.10511 1.42114H3.76434C4.03276 1.4185 4.29297 1.51336 4.49649 1.68804C4.7 1.86271 4.83293 2.10529 4.8705 2.37054C4.94053 2.90048 5.07041 3.42081 5.25765 3.92161C5.33206 4.11918 5.34817 4.33389 5.30406 4.54031C5.25995 4.74674 5.15747 4.93621 5.00877 5.08629L4.30636 5.78731C5.09369 7.16922 6.24017 8.31342 7.62482 9.09919L8.32723 8.39818C8.4776 8.24977 8.66746 8.14749 8.87429 8.10347C9.08112 8.05945 9.29626 8.07552 9.49422 8.14979C9.99601 8.33666 10.5174 8.46628 11.0484 8.53617C11.317 8.574 11.5624 8.70906 11.7378 8.91566C11.9132 9.12226 12.0064 9.38599 11.9997 9.65669Z" stroke="black" stroke-linecap="round" stroke-linejoin="round"></path>
</svg>
